<svg width="18" height="18" viewBox="0 0 18 18" fill="none" xmlns="http://www.w3.org/2000/svg">
<path d="M7.00035 7.99884C7.00035 7.86623 7.05302 7.73906 7.14679 7.64529C7.24056 7.55152 7.36774 7.49884 7.50035 7.49884H10.5003C10.633 7.49884 10.7601 7.55152 10.8539 7.64529C10.9477 7.73906 11.0003 7.86623 11.0003 7.99884C11.0003 8.13145 10.9477 8.25863 10.8539 8.3524C10.7601 8.44616 10.633 8.49884 10.5003 8.49884H7.50035C7.36774 8.49884 7.24056 8.44616 7.14679 8.3524C7.05302 8.25863 7.00035 8.13145 7.00035 7.99884ZM7.50035 9.49884C7.36774 9.49884 7.24056 9.55152 7.14679 9.64529C7.05302 9.73906 7.00035 9.86623 7.00035 9.99884C7.00035 10.1315 7.05302 10.2586 7.14679 10.3524C7.24056 10.4462 7.36774 10.4988 7.50035 10.4988H9.50035C9.63295 10.4988 9.76013 10.4462 9.8539 10.3524C9.94767 10.2586 10.0003 10.1315 10.0003 9.99884C10.0003 9.86623 9.94767 9.73906 9.8539 9.64529C9.76013 9.55152 9.63295 9.49884 9.50035 9.49884H7.50035ZM3.00035 8.99884C3.0006 7.67789 3.43677 6.39394 4.24119 5.34617C5.04562 4.2984 6.17333 3.54538 7.44939 3.20392C8.72544 2.86247 10.0785 2.95166 11.2987 3.45767C12.5189 3.96367 13.538 4.85821 14.1979 6.0025C14.8579 7.1468 15.1217 8.4769 14.9486 9.78645C14.7754 11.096 14.175 12.3118 13.2403 13.2453C12.3057 14.1788 11.0891 14.7777 9.77935 14.9492C8.46958 15.1207 7.13982 14.8552 5.99635 14.1938L3.65835 14.9738C3.57197 15.0027 3.47935 15.0074 3.3905 14.9874C3.30165 14.9675 3.21992 14.9237 3.15416 14.8607C3.08839 14.7977 3.04107 14.7179 3.01732 14.63C2.99356 14.5421 2.99426 14.4494 3.01935 14.3618L3.73135 11.8708C3.25137 10.9897 3.00003 10.0022 3.00035 8.99884ZM9.00035 3.99884C8.11753 3.99879 7.25043 4.23247 6.4872 4.67615C5.72397 5.11982 5.09182 5.75767 4.655 6.52484C4.21818 7.29202 3.99227 8.16117 4.00023 9.04396C4.0082 9.92674 4.24975 10.7917 4.70035 11.5508C4.73501 11.6095 4.75733 11.6746 4.76593 11.7422C4.77453 11.8098 4.76922 11.8784 4.75035 11.9438L4.24135 13.7238L5.89935 13.1718C5.96976 13.1483 6.04452 13.1408 6.11821 13.1498C6.19189 13.1588 6.26265 13.1841 6.32535 13.2238C6.98061 13.6385 7.72336 13.8951 8.49487 13.9733C9.26639 14.0516 10.0455 13.9492 10.7707 13.6745C11.4958 13.3998 12.1472 12.9601 12.6732 12.3903C13.1991 11.8205 13.5854 11.1361 13.8014 10.3913C14.0173 9.64656 14.0571 8.86175 13.9175 8.09894C13.778 7.33614 13.4629 6.61625 12.9972 5.99619C12.5315 5.37612 11.928 4.87288 11.2343 4.52623C10.5406 4.17958 9.77581 3.99902 9.00035 3.99884Z" fill="#1F1F1F"/>
</svg>
