<svg width="18" height="21" viewBox="0 0 18 21" fill="none" xmlns="http://www.w3.org/2000/svg">
<circle cx="9" cy="9" r="8.5" stroke="#DADADA"/>
<path d="M8.96 6.32C8.61467 6.32 8.32533 6.21267 8.092 5.998C7.868 5.774 7.756 5.49867 7.756 5.172C7.756 4.84533 7.868 4.57467 8.092 4.36C8.32533 4.136 8.61467 4.024 8.96 4.024C9.30533 4.024 9.59 4.136 9.814 4.36C10.0473 4.57467 10.164 4.84533 10.164 5.172C10.164 5.49867 10.0473 5.774 9.814 5.998C9.59 6.21267 9.30533 6.32 8.96 6.32ZM9.926 7.244V15H7.966V7.244H9.926Z" fill="white"/>
</svg>
