<svg width="18" height="18" viewBox="0 0 18 18" fill="none" xmlns="http://www.w3.org/2000/svg">
<path d="M4.23906 7.51874L5.70156 8.13749C5.87656 7.78749 6.05781 7.44999 6.24531 7.12499C6.43281 6.79999 6.63906 6.47499 6.86406 6.14999L5.81406 5.94374L4.23906 7.51874ZM6.90156 9.07499L9.03906 11.1937C9.56406 10.9937 10.1266 10.6875 10.7266 10.275C11.3266 9.86249 11.8891 9.39374 12.4141 8.86874C13.2891 7.99374 13.9736 7.02199 14.4676 5.95349C14.9616 4.88499 15.1771 3.90049 15.1141 2.99999C14.2141 2.93749 13.2266 3.15324 12.1516 3.64724C11.0766 4.14124 10.1016 4.82549 9.22656 5.69999C8.70156 6.22499 8.23281 6.78749 7.82031 7.38749C7.40781 7.98749 7.10156 8.54999 6.90156 9.07499ZM10.2391 7.85624C9.95156 7.56874 9.80781 7.21574 9.80781 6.79724C9.80781 6.37874 9.95156 6.02549 10.2391 5.73749C10.5266 5.44949 10.8828 5.30574 11.3078 5.30624C11.7328 5.30674 12.0891 5.45049 12.3766 5.73749C12.6641 6.02449 12.8078 6.37774 12.8078 6.79724C12.8078 7.21674 12.6641 7.56974 12.3766 7.85624C12.0891 8.14274 11.7328 8.28649 11.3078 8.28749C10.8828 8.28849 10.5266 8.14474 10.2391 7.85624ZM10.5953 13.875L12.1703 12.3L11.9641 11.25C11.6391 11.475 11.3141 11.678 10.9891 11.859C10.6641 12.04 10.3266 12.2182 9.97656 12.3937L10.5953 13.875ZM16.4641 1.63124C16.7016 3.14374 16.5548 4.61574 16.0238 6.04724C15.4928 7.47874 14.5771 8.84424 13.2766 10.1437L13.6516 12C13.7016 12.25 13.6891 12.4937 13.6141 12.7312C13.5391 12.9687 13.4141 13.175 13.2391 13.35L10.0891 16.5L8.51406 12.8062L5.30781 9.59999L1.61406 8.02499L4.74531 4.87499C4.92031 4.69999 5.12981 4.57499 5.37381 4.49999C5.61781 4.42499 5.86456 4.41249 6.11406 4.46249L7.97031 4.83749C9.27031 3.53749 10.6328 2.61874 12.0578 2.08124C13.4828 1.54374 14.9516 1.39374 16.4641 1.63124ZM2.94531 11.9812C3.38281 11.5437 3.91731 11.322 4.54881 11.316C5.18031 11.31 5.71456 11.5255 6.15156 11.9625C6.58856 12.3995 6.80431 12.934 6.79881 13.566C6.79331 14.198 6.57131 14.7322 6.13281 15.1687C5.82031 15.4812 5.29856 15.75 4.56756 15.975C3.83656 16.2 2.82706 16.4 1.53906 16.575C1.71406 15.2875 1.91406 14.278 2.13906 13.5465C2.36406 12.815 2.63281 12.2932 2.94531 11.9812ZM4.01406 13.0312C3.88906 13.1562 3.76406 13.3845 3.63906 13.716C3.51406 14.0475 3.42656 14.3817 3.37656 14.7187C3.71406 14.6687 4.04856 14.5845 4.38006 14.466C4.71156 14.3475 4.93956 14.2255 5.06406 14.1C5.21406 13.95 5.29531 13.7687 5.30781 13.5562C5.32031 13.3437 5.25156 13.1625 5.10156 13.0125C4.95156 12.8625 4.77031 12.7905 4.55781 12.7965C4.34531 12.8025 4.16406 12.8807 4.01406 13.0312Z" fill="#1F1F1F"/>
</svg>
