<svg width="18" height="18" viewBox="0 0 18 18" fill="none" xmlns="http://www.w3.org/2000/svg">
<path d="M13.9344 2.20822C13.6531 1.92702 13.2717 1.76904 12.8739 1.76904C12.4762 1.76904 12.0947 1.92702 11.8134 2.20822L10.5797 3.44272L14.5569 7.41997L15.7907 6.18697C15.93 6.04768 16.0406 5.88229 16.116 5.70026C16.1914 5.51823 16.2302 5.32313 16.2302 5.1261C16.2302 4.92906 16.1914 4.73396 16.116 4.55193C16.0406 4.3699 15.93 4.20452 15.7907 4.06522L13.9344 2.20822ZM13.4964 8.48047L9.51919 4.50322L2.89294 11.1295L2.08594 15.9145L6.87094 15.1067L13.4964 8.48047Z" fill="#636363"/>
</svg>
